<svg xmlns="http://www.w3.org/2000/svg" viewBox="0 0 32 32" width="32" height="32">
  <title>Bibliotheca Parva</title>
  <rect width="32" height="32" rx="7" fill="#0284c7"/>
  <!-- open book: two pages meeting at a centre spine -->
  <g>
    <path d="M16 8.6C12.7 6.9 8.4 6.9 5 8.2V23.4C8.4 22.1 12.7 22.1 16 23.8Z" fill="#ffffff"/>
    <path d="M16 8.6C19.3 6.9 23.6 6.9 27 8.2V23.4C23.6 22.1 19.3 22.1 16 23.8Z" fill="#e0f2fe"/>
    <path d="M16 8.6V23.8" stroke="#0284c7" stroke-width="1.1" stroke-linecap="round"/>
    <!-- faint page lines -->
    <g stroke="#7dd3fc" stroke-width="1" stroke-linecap="round" opacity="0.9">
      <path d="M8.2 11.6C10.4 11.1 12.4 11.1 13.8 11.6"/>
      <path d="M8.2 14.4C10.4 13.9 12.4 13.9 13.8 14.4"/>
      <path d="M18.2 11.6C19.6 11.1 21.6 11.1 23.8 11.6"/>
      <path d="M18.2 14.4C19.6 13.9 21.6 13.9 23.8 14.4"/>
    </g>
  </g>
  <!-- amber bookmark hanging from the top -->
  <path d="M20.5 6.2H24.5V13L22.5 11.2L20.5 13Z" fill="#f59e0b"/>
</svg>
